<svg width="100" height="100" viewBox="0 0 100 100" fill="none" xmlns="http://www.w3.org/2000/svg">
<g id="Frame 1">
<g id="Vector 1">
<path d="M70.5386 30C67.7386 29.6 63.5386 32 60.0386 32C56.0386 34.5 55.0386 37.3 55.0386 38.5C55.0386 40 71.0386 37 72.5386 37.5C73.7386 37.9 72.5386 38.6667 71.5386 44.5C65.7052 44.5 51.7386 43 50.5386 43C49.0386 43 44.5386 52 45.0386 53.5C45.5386 55 71.5386 51 75.5386 50.5C79.5386 50 83.0386 30.5 80.0386 31C77.0386 31.5 74.0386 30.5 70.5386 30Z" fill="url(#paint0_radial_1_2)"/>
<path d="M76.0386 25L79.5386 16.5C80.7052 16.6667 83.7386 15.7 84.5386 16.5C85.5386 17.5 82.0386 20 82.0386 21.5C82.0386 23 82.0386 26 79.5386 27C77.5386 27.8 76.5386 26.1667 76.0386 25Z" fill="url(#paint1_radial_1_2)"/>
<path d="M88.5386 19C88.5386 18.5 85.5386 18.5 84.5386 19C84.2406 19.8939 85.0399 20.2272 84.5386 21.5C83.9182 23.0751 82.481 24.5575 82.0386 25C81.0386 26 80.5386 26.401 80.5386 27C80.5386 27.599 79.5386 28 80.5386 29C81.3386 29.8 82.8719 29.3333 83.5386 29L86.0386 24.5C86.8719 22.8333 88.5386 19.4 88.5386 19Z" fill="url(#paint2_radial_1_2)"/>
<path d="M75.5386 64C72.7386 63.6 73.0386 61 69.0386 62C65.0386 65 63.0386 75.8 63.0386 77C63.0386 78.5 72.0386 73.5 73.5386 74C74.7386 74.4 73.5386 74.1667 72.5386 80C66.7052 80 42.2386 82 41.0386 82C39.5386 82 29.5386 92 30.0386 93.5C30.5386 95 72.5386 86.5 76.5386 86C80.5386 85.5 85.5386 63 82.5386 63.5C79.5386 64 79.0386 64.5 75.5386 64Z" fill="url(#paint3_radial_1_2)"/>
<path d="M86.5386 56L91.0386 49C92.2052 49.1667 93.2386 47.7 94.0386 48.5C95.0386 49.5 92.5386 51 92.5386 52.5C92.5386 54 92.5386 57 90.0386 58C88.0386 58.8 87.0386 57.1667 86.5386 56Z" fill="url(#paint4_radial_1_2)"/>
<path d="M98.5386 49.5C98.5386 49 96.0386 48 95.0386 48.5C94.7406 49.3939 94.0399 50.7272 93.5386 52C92.9182 53.5751 92.481 55.0575 92.0386 55.5C91.0386 56.5 90.5386 56.901 90.5386 57.5C90.5386 58.099 90.5386 58.5 91.5386 59.5C92.3386 60.3 93.8719 59.8333 94.5386 59.5L95.0386 55.5C95.8719 53.8333 98.5386 49.9 98.5386 49.5Z" fill="url(#paint5_radial_1_2)"/>
<path d="M27 24C24.2 23.6 22.5 21.5 19 21.5C15 24 14 30.8 14 32C14 33.5 33 28.5 34.5 29C35.7 29.4 32.5 38.6667 31.5 44.5C25.6667 44.5 9.7 44 8.5 44C7 44 1.5 52 2 53.5C2.5 55 30.5 51.5 34.5 51C38.5 50.5 45.5386 21 42.5386 21.5C39.5386 22 30.5 24.5 27 24Z" fill="url(#paint6_radial_1_2)"/>
<path d="M39.0386 16L42.5386 7.5C43.7052 7.66667 44.2386 8.2 45.0386 9C46.0386 10 45.0386 11 45.0386 12.5C45.0386 14 45.0386 17 42.5386 18C40.5386 18.8 39.5386 17.1667 39.0386 16Z" fill="url(#paint7_radial_1_2)"/>
<path d="M51.5386 10C51.5386 9.5 48.0386 10 47.0386 10.5C46.7406 11.3939 47.0399 11.2272 46.5386 12.5C45.9182 14.0751 45.481 15.5575 45.0386 16C44.0386 17 43.5386 17.401 43.5386 18C43.5386 18.599 43.5386 19 44.5386 20C45.3386 20.8 46.8719 20.3333 47.5386 20L49.0386 15.5C49.8719 13.8333 51.5386 10.4 51.5386 10Z" fill="url(#paint8_radial_1_2)"/>
<path d="M70.5386 30C67.7386 29.6 63.5386 32 60.0386 32C56.0386 34.5 55.0386 37.3 55.0386 38.5C55.0386 40 71.0386 37 72.5386 37.5C73.7386 37.9 72.5386 38.6667 71.5386 44.5C65.7052 44.5 51.7386 43 50.5386 43C49.0386 43 44.5386 52 45.0386 53.5C45.5386 55 71.5386 51 75.5386 50.5C79.5386 50 83.0386 30.5 80.0386 31C77.0386 31.5 74.0386 30.5 70.5386 30Z" stroke="url(#paint9_radial_1_2)"/>
<path d="M76.0386 25L79.5386 16.5C80.7052 16.6667 83.7386 15.7 84.5386 16.5C85.5386 17.5 82.0386 20 82.0386 21.5C82.0386 23 82.0386 26 79.5386 27C77.5386 27.8 76.5386 26.1667 76.0386 25Z" stroke="url(#paint10_radial_1_2)"/>
<path d="M88.5386 19C88.5386 18.5 85.5386 18.5 84.5386 19C84.2406 19.8939 85.0399 20.2272 84.5386 21.5C83.9182 23.0751 82.481 24.5575 82.0386 25C81.0386 26 80.5386 26.401 80.5386 27C80.5386 27.599 79.5386 28 80.5386 29C81.3386 29.8 82.8719 29.3333 83.5386 29L86.0386 24.5C86.8719 22.8333 88.5386 19.4 88.5386 19Z" stroke="url(#paint11_radial_1_2)"/>
<path d="M75.5386 64C72.7386 63.6 73.0386 61 69.0386 62C65.0386 65 63.0386 75.8 63.0386 77C63.0386 78.5 72.0386 73.5 73.5386 74C74.7386 74.4 73.5386 74.1667 72.5386 80C66.7052 80 42.2386 82 41.0386 82C39.5386 82 29.5386 92 30.0386 93.5C30.5386 95 72.5386 86.5 76.5386 86C80.5386 85.5 85.5386 63 82.5386 63.5C79.5386 64 79.0386 64.5 75.5386 64Z" stroke="url(#paint12_radial_1_2)"/>
<path d="M86.5386 56L91.0386 49C92.2052 49.1667 93.2386 47.7 94.0386 48.5C95.0386 49.5 92.5386 51 92.5386 52.5C92.5386 54 92.5386 57 90.0386 58C88.0386 58.8 87.0386 57.1667 86.5386 56Z" stroke="url(#paint13_radial_1_2)"/>
<path d="M98.5386 49.5C98.5386 49 96.0386 48 95.0386 48.5C94.7406 49.3939 94.0399 50.7272 93.5386 52C92.9182 53.5751 92.481 55.0575 92.0386 55.5C91.0386 56.5 90.5386 56.901 90.5386 57.5C90.5386 58.099 90.5386 58.5 91.5386 59.5C92.3386 60.3 93.8719 59.8333 94.5386 59.5L95.0386 55.5C95.8719 53.8333 98.5386 49.9 98.5386 49.5Z" stroke="url(#paint14_radial_1_2)"/>
<path d="M27 24C24.2 23.6 22.5 21.5 19 21.5C15 24 14 30.8 14 32C14 33.5 33 28.5 34.5 29C35.7 29.4 32.5 38.6667 31.5 44.5C25.6667 44.5 9.7 44 8.5 44C7 44 1.5 52 2 53.5C2.5 55 30.5 51.5 34.5 51C38.5 50.5 45.5386 21 42.5386 21.5C39.5386 22 30.5 24.5 27 24Z" stroke="url(#paint15_radial_1_2)"/>
<path d="M39.0386 16L42.5386 7.5C43.7052 7.66667 44.2386 8.2 45.0386 9C46.0386 10 45.0386 11 45.0386 12.5C45.0386 14 45.0386 17 42.5386 18C40.5386 18.8 39.5386 17.1667 39.0386 16Z" stroke="url(#paint16_radial_1_2)"/>
<path d="M51.5386 10C51.5386 9.5 48.0386 10 47.0386 10.5C46.7406 11.3939 47.0399 11.2272 46.5386 12.5C45.9182 14.0751 45.481 15.5575 45.0386 16C44.0386 17 43.5386 17.401 43.5386 18C43.5386 18.599 43.5386 19 44.5386 20C45.3386 20.8 46.8719 20.3333 47.5386 20L49.0386 15.5C49.8719 13.8333 51.5386 10.4 51.5386 10Z" stroke="url(#paint17_radial_1_2)"/>
</g>
</g>
<defs>
<radialGradient id="paint0_radial_1_2" cx="0" cy="0" r="1" gradientUnits="userSpaceOnUse" gradientTransform="translate(3.5 95) rotate(-42.8447) scale(131.615 148.252)">
<stop stop-color="#E2773B"/>
<stop offset="1" stop-color="#E2773B" stop-opacity="0.47"/>
</radialGradient>
<radialGradient id="paint1_radial_1_2" cx="0" cy="0" r="1" gradientUnits="userSpaceOnUse" gradientTransform="translate(3.5 95) rotate(-42.8447) scale(131.615 148.252)">
<stop stop-color="#E2773B"/>
<stop offset="1" stop-color="#E2773B" stop-opacity="0.47"/>
</radialGradient>
<radialGradient id="paint2_radial_1_2" cx="0" cy="0" r="1" gradientUnits="userSpaceOnUse" gradientTransform="translate(3.5 95) rotate(-42.8447) scale(131.615 148.252)">
<stop stop-color="#E2773B"/>
<stop offset="1" stop-color="#E2773B" stop-opacity="0.47"/>
</radialGradient>
<radialGradient id="paint3_radial_1_2" cx="0" cy="0" r="1" gradientUnits="userSpaceOnUse" gradientTransform="translate(3.5 95) rotate(-42.8447) scale(131.615 148.252)">
<stop stop-color="#E2773B"/>
<stop offset="1" stop-color="#E2773B" stop-opacity="0.47"/>
</radialGradient>
<radialGradient id="paint4_radial_1_2" cx="0" cy="0" r="1" gradientUnits="userSpaceOnUse" gradientTransform="translate(3.5 95) rotate(-42.8447) scale(131.615 148.252)">
<stop stop-color="#E2773B"/>
<stop offset="1" stop-color="#E2773B" stop-opacity="0.47"/>
</radialGradient>
<radialGradient id="paint5_radial_1_2" cx="0" cy="0" r="1" gradientUnits="userSpaceOnUse" gradientTransform="translate(3.5 95) rotate(-42.8447) scale(131.615 148.252)">
<stop stop-color="#E2773B"/>
<stop offset="1" stop-color="#E2773B" stop-opacity="0.47"/>
</radialGradient>
<radialGradient id="paint6_radial_1_2" cx="0" cy="0" r="1" gradientUnits="userSpaceOnUse" gradientTransform="translate(3.5 95) rotate(-42.8447) scale(131.615 148.252)">
<stop stop-color="#E2773B"/>
<stop offset="1" stop-color="#E2773B" stop-opacity="0.47"/>
</radialGradient>
<radialGradient id="paint7_radial_1_2" cx="0" cy="0" r="1" gradientUnits="userSpaceOnUse" gradientTransform="translate(3.5 95) rotate(-42.8447) scale(131.615 148.252)">
<stop stop-color="#E2773B"/>
<stop offset="1" stop-color="#E2773B" stop-opacity="0.47"/>
</radialGradient>
<radialGradient id="paint8_radial_1_2" cx="0" cy="0" r="1" gradientUnits="userSpaceOnUse" gradientTransform="translate(3.5 95) rotate(-42.8447) scale(131.615 148.252)">
<stop stop-color="#E2773B"/>
<stop offset="1" stop-color="#E2773B" stop-opacity="0.47"/>
</radialGradient>
<radialGradient id="paint9_radial_1_2" cx="0" cy="0" r="1" gradientUnits="userSpaceOnUse" gradientTransform="translate(4.49999 94) rotate(-43.9191) scale(131.192 147.014)">
<stop stop-opacity="0.67"/>
<stop offset="1" stop-opacity="0.59"/>
</radialGradient>
<radialGradient id="paint10_radial_1_2" cx="0" cy="0" r="1" gradientUnits="userSpaceOnUse" gradientTransform="translate(4.49999 94) rotate(-43.9191) scale(131.192 147.014)">
<stop stop-opacity="0.67"/>
<stop offset="1" stop-opacity="0.59"/>
</radialGradient>
<radialGradient id="paint11_radial_1_2" cx="0" cy="0" r="1" gradientUnits="userSpaceOnUse" gradientTransform="translate(4.49999 94) rotate(-43.9191) scale(131.192 147.014)">
<stop stop-opacity="0.67"/>
<stop offset="1" stop-opacity="0.59"/>
</radialGradient>
<radialGradient id="paint12_radial_1_2" cx="0" cy="0" r="1" gradientUnits="userSpaceOnUse" gradientTransform="translate(4.49999 94) rotate(-43.9191) scale(131.192 147.014)">
<stop stop-opacity="0.67"/>
<stop offset="1" stop-opacity="0.59"/>
</radialGradient>
<radialGradient id="paint13_radial_1_2" cx="0" cy="0" r="1" gradientUnits="userSpaceOnUse" gradientTransform="translate(4.49999 94) rotate(-43.9191) scale(131.192 147.014)">
<stop stop-opacity="0.67"/>
<stop offset="1" stop-opacity="0.59"/>
</radialGradient>
<radialGradient id="paint14_radial_1_2" cx="0" cy="0" r="1" gradientUnits="userSpaceOnUse" gradientTransform="translate(4.49999 94) rotate(-43.9191) scale(131.192 147.014)">
<stop stop-opacity="0.67"/>
<stop offset="1" stop-opacity="0.59"/>
</radialGradient>
<radialGradient id="paint15_radial_1_2" cx="0" cy="0" r="1" gradientUnits="userSpaceOnUse" gradientTransform="translate(4.49999 94) rotate(-43.9191) scale(131.192 147.014)">
<stop stop-opacity="0.67"/>
<stop offset="1" stop-opacity="0.59"/>
</radialGradient>
<radialGradient id="paint16_radial_1_2" cx="0" cy="0" r="1" gradientUnits="userSpaceOnUse" gradientTransform="translate(4.49999 94) rotate(-43.9191) scale(131.192 147.014)">
<stop stop-opacity="0.67"/>
<stop offset="1" stop-opacity="0.59"/>
</radialGradient>
<radialGradient id="paint17_radial_1_2" cx="0" cy="0" r="1" gradientUnits="userSpaceOnUse" gradientTransform="translate(4.49999 94) rotate(-43.9191) scale(131.192 147.014)">
<stop stop-opacity="0.67"/>
<stop offset="1" stop-opacity="0.59"/>
</radialGradient>
</defs>
</svg>
