<svg width="100" height="100" viewBox="0 0 100 100" fill="none" xmlns="http://www.w3.org/2000/svg">
<rect width="100" height="100" fill="white"/>
<path d="M63.5 30.5L75 32L68.5 54.5L91 69.5H83L81.5 76L67 60V73.5L58 70.5L63.5 30.5Z" fill="url(#paint0_linear_8_21)"/>
<path d="M78 32.5C78.6667 28.8333 82.5 22.4 82.5 22H88C88 25.3333 83 33.9 83 33.5C83 33.1 82.1667 30.8333 81.5 31L78 32.5Z" fill="url(#paint1_linear_8_21)"/>
<path d="M85.5 44.5L88 36.5L93 38.5L92 44H88.5L85.5 44.5Z" fill="url(#paint2_linear_8_21)"/>
<path d="M63.5 30.5L75 32L68.5 54.5L91 69.5H83L81.5 76L67 60V73.5L58 70.5L63.5 30.5Z" stroke="black"/>
<path d="M78 32.5C78.6667 28.8333 82.5 22.4 82.5 22H88C88 25.3333 83 33.9 83 33.5C83 33.1 82.1667 30.8333 81.5 31L78 32.5Z" stroke="black"/>
<path d="M85.5 44.5L88 36.5L93 38.5L92 44H88.5L85.5 44.5Z" stroke="black"/>
<path d="M19 13.5L28 10.5L25.5 41.5L39 52.5L36.5 54.5V58.5L24 47L21 66L16 69L19 13.5Z" fill="url(#paint3_linear_8_21)"/>
<path d="M33 16C33.6667 12.3333 35 4.9 35 4.5L38.5 5V14.5C38.5 14.1 37.1667 14.3333 36.5 14.5L33 16Z" fill="url(#paint4_linear_8_21)"/>
<path d="M43.5 32L45 23.5L47 25V32L45.5 31L43.5 32Z" fill="url(#paint5_linear_8_21)"/>
<path d="M19 13.5L28 10.5L25.5 41.5L39 52.5L36.5 54.5V58.5L24 47L21 66L16 69L19 13.5Z" stroke="black"/>
<path d="M33 16C33.6667 12.3333 35 4.9 35 4.5L38.5 5V14.5C38.5 14.1 37.1667 14.3333 36.5 14.5L33 16Z" stroke="black"/>
<path d="M43.5 32L45 23.5L47 25V32L45.5 31L43.5 32Z" stroke="black"/>
<defs>
<linearGradient id="paint0_linear_8_21" x1="75.5" y1="22" x2="75.5" y2="76" gradientUnits="userSpaceOnUse">
<stop stop-color="#DE9A16"/>
<stop offset="1" stop-color="#DE9A16" stop-opacity="0.41"/>
</linearGradient>
<linearGradient id="paint1_linear_8_21" x1="75.5" y1="22" x2="75.5" y2="76" gradientUnits="userSpaceOnUse">
<stop stop-color="#DE9A16"/>
<stop offset="1" stop-color="#DE9A16" stop-opacity="0.41"/>
</linearGradient>
<linearGradient id="paint2_linear_8_21" x1="75.5" y1="22" x2="75.5" y2="76" gradientUnits="userSpaceOnUse">
<stop stop-color="#DE9A16"/>
<stop offset="1" stop-color="#DE9A16" stop-opacity="0.41"/>
</linearGradient>
<linearGradient id="paint3_linear_8_21" x1="31.5" y1="4.5" x2="31.5" y2="69" gradientUnits="userSpaceOnUse">
<stop stop-color="#DE9A16"/>
<stop offset="1" stop-color="#DE9A16" stop-opacity="0.47"/>
</linearGradient>
<linearGradient id="paint4_linear_8_21" x1="31.5" y1="4.5" x2="31.5" y2="69" gradientUnits="userSpaceOnUse">
<stop stop-color="#DE9A16"/>
<stop offset="1" stop-color="#DE9A16" stop-opacity="0.47"/>
</linearGradient>
<linearGradient id="paint5_linear_8_21" x1="31.5" y1="4.5" x2="31.5" y2="69" gradientUnits="userSpaceOnUse">
<stop stop-color="#DE9A16"/>
<stop offset="1" stop-color="#DE9A16" stop-opacity="0.47"/>
</linearGradient>
</defs>
</svg>
