<svg width="100" height="64" viewBox="0 0 100 64" fill="none" xmlns="http://www.w3.org/2000/svg"> <g id="ADJ" filter="url(#filter0_d_1_5)"> <path d="M31.4844 33.5703V26.8438C31.4844 25.9219 31.3047 25.0547 30.9453 24.2422C30.6016 23.4141 30.125 22.6953 29.5156 22.0859C28.9062 21.4766 28.1875 21 27.3594 20.6562C26.5469 20.2969 25.6797 20.1172 24.7578 20.1172C23.8359 20.1172 22.9609 20.2969 22.1328 20.6562C21.3203 21 20.6094 21.4766 20 22.0859C19.3906 22.6953 18.9062 23.4141 18.5469 24.2422C18.2031 25.0547 18.0312 25.9219 18.0312 26.8438V33.5703H31.4844ZM38.2109 47H31.4844V40.2734H18.0312V47H11.3281V26.8438C11.3281 24.9844 11.6797 23.2422 12.3828 21.6172C13.0859 19.9766 14.0391 18.5469 15.2422 17.3281C16.4609 16.1094 17.8828 15.1484 19.5078 14.4453C21.1484 13.7422 22.8984 13.3906 24.7578 13.3906C26.6172 13.3906 28.3594 13.7422 29.9844 14.4453C31.625 15.1484 33.0547 16.1094 34.2734 17.3281C35.4922 18.5469 36.4531 19.9766 37.1562 21.6172C37.8594 23.2422 38.2109 24.9844 38.2109 26.8438V47ZM70.9766 30.1953C70.9766 31.7422 70.7734 33.2344 70.3672 34.6719C69.9766 36.0938 69.4141 37.4297 68.6797 38.6797C67.9453 39.9141 67.0703 41.0469 66.0547 42.0781C65.0391 43.0938 63.9062 43.9688 62.6562 44.7031C61.4062 45.4375 60.0625 46.0078 58.625 46.4141C57.2031 46.8047 55.7188 47 54.1719 47H44.0469V13.3906H54.1719C55.7188 13.3906 57.2031 13.5938 58.625 14C60.0625 14.3906 61.4062 14.9531 62.6562 15.6875C63.9062 16.4219 65.0391 17.3047 66.0547 18.3359C67.0703 19.3516 67.9453 20.4844 68.6797 21.7344C69.4141 22.9688 69.9766 24.3047 70.3672 25.7422C70.7734 27.1641 70.9766 28.6484 70.9766 30.1953ZM64.25 30.1953C64.25 28.8047 63.9844 27.5 63.4531 26.2812C62.9375 25.0625 62.2188 24 61.2969 23.0938C60.3906 22.1719 59.3203 21.4453 58.0859 20.9141C56.8672 20.3828 55.5625 20.1172 54.1719 20.1172H50.8203V40.2734H54.1719C55.5625 40.2734 56.8672 40.0156 58.0859 39.5C59.3203 38.9688 60.3906 38.25 61.2969 37.3438C62.2188 36.4219 62.9375 35.3516 63.4531 34.1328C63.9844 32.8984 64.25 31.5859 64.25 30.1953ZM88.6719 33.5703C88.6719 35.4297 88.3203 37.1797 87.6172 38.8203C86.9141 40.4453 85.9531 41.8672 84.7344 43.0859C83.5312 44.2891 82.1094 45.2422 80.4688 45.9453C78.8438 46.6484 77.1016 47 75.2422 47C74.1172 47 72.9922 46.8594 71.8672 46.5781V39.3594C72.3672 39.6562 72.9062 39.8828 73.4844 40.0391C74.0625 40.1953 74.6484 40.2734 75.2422 40.2734C76.1641 40.2734 77.0312 40.1016 77.8438 39.7578C78.6719 39.3984 79.3906 38.9141 80 38.3047C80.6094 37.6953 81.0859 36.9844 81.4297 36.1719C81.7891 35.3594 81.9688 34.4922 81.9688 33.5703V13.3906H88.6719V33.5703Z" fill="#E2773B"/> </g> <defs> <filter id="filter0_d_1_5" x="7.32812" y="13.3906" width="85.3438" height="41.6094" filterUnits="userSpaceOnUse" color-interpolation-filters="sRGB"> <feFlood flood-opacity="0" result="BackgroundImageFix"/> <feColorMatrix in="SourceAlpha" type="matrix" values="0 0 0 0 0 0 0 0 0 0 0 0 0 0 0 0 0 0 127 0" result="hardAlpha"/> <feOffset dy="4"/> <feGaussianBlur stdDeviation="2"/> <feComposite in2="hardAlpha" operator="out"/> <feColorMatrix type="matrix" values="0 0 0 0 0 0 0 0 0 0 0 0 0 0 0 0 0 0 0.25 0"/> <feBlend mode="normal" in2="BackgroundImageFix" result="effect1_dropShadow_1_5"/> <feBlend mode="normal" in="SourceGraphic" in2="effect1_dropShadow_1_5" result="shape"/> </filter> </defs> </svg>
